<svg width="56" height="56" viewBox="0 0 56 56" fill="none" xmlns="http://www.w3.org/2000/svg">
<path fill-rule="evenodd" clip-rule="evenodd" d="M3.00786 6.44702C3.15434 6.0068 3.46963 5.64276 3.88442 5.43493C4.29921 5.22709 4.77956 5.19248 5.21986 5.33869L5.8382 5.54635L5.93153 5.57669C7.3922 6.06435 8.62653 6.47502 9.59953 6.92769C10.6309 7.40835 11.5269 8.00102 12.2059 8.94602C12.8849 9.88635 13.1672 10.9247 13.2955 12.0564C13.4169 13.1204 13.4169 14.4224 13.4169 15.9624V22.1667C13.4169 25.515 13.4215 27.853 13.6572 29.6147C13.8882 31.3274 14.3105 32.2327 14.9545 32.879C15.6009 33.5254 16.5085 33.9454 18.2212 34.1764C19.9829 34.412 22.3185 34.4167 25.6669 34.4167H42.0002C42.23 34.4167 42.4576 34.462 42.6699 34.5499C42.8822 34.6378 43.0751 34.7667 43.2376 34.9292C43.4001 35.0918 43.529 35.2847 43.617 35.497C43.7049 35.7093 43.7502 35.9369 43.7502 36.1667C43.7502 36.3965 43.7049 36.6241 43.617 36.8364C43.529 37.0487 43.4001 37.2416 43.2376 37.4041C43.0751 37.5666 42.8822 37.6955 42.6699 37.7835C42.4576 37.8714 42.23 37.9167 42.0002 37.9167H25.5385C22.3489 37.9167 19.7752 37.9167 17.7522 37.6437C15.6522 37.3637 13.8835 36.757 12.4789 35.3547C11.0765 33.95 10.4722 32.1814 10.1899 30.0814C9.91686 28.0584 9.91686 25.4847 9.91686 22.295V16.0604C9.91686 14.3967 9.91686 13.2954 9.81887 12.453C9.72553 11.655 9.5692 11.27 9.3662 10.9924C9.16553 10.7124 8.85053 10.4394 8.12253 10.101C7.35253 9.74402 6.30953 9.39169 4.7322 8.86435L4.11386 8.65902C3.67407 8.51207 3.31058 8.19659 3.10321 7.78185C2.89584 7.36711 2.86155 6.88702 3.00786 6.44702Z" fill="#F2BAC9"/>
<path opacity="0.5" d="M13.4048 14C13.4165 14.6067 13.4165 15.26 13.4165 15.9623V22.1667C13.4165 25.515 13.4211 27.853 13.6568 29.6147C13.6918 29.8713 13.7315 30.1117 13.7735 30.3333H37.3868C39.6245 30.3333 40.7421 30.3333 41.6195 29.7547C42.4968 29.176 42.9378 28.1493 43.8174 26.0913L44.8208 23.758C46.7085 19.348 47.6511 17.1477 46.6151 15.5727C45.5768 14 43.1805 14 38.3831 14H13.4048Z" fill="#F2BAC9"/>
<path d="M17.5 42C18.4283 42 19.3185 42.3688 19.9749 43.0251C20.6313 43.6815 21 44.5717 21 45.5C21 46.4283 20.6313 47.3185 19.9749 47.9749C19.3185 48.6312 18.4283 49 17.5 49C16.5717 49 15.6815 48.6312 15.0251 47.9749C14.3687 47.3185 14 46.4283 14 45.5C14 44.5717 14.3687 43.6815 15.0251 43.0251C15.6815 42.3688 16.5717 42 17.5 42ZM42 45.5C42 44.5717 41.6312 43.6815 40.9749 43.0251C40.3185 42.3688 39.4283 42 38.5 42C37.5717 42 36.6815 42.3688 36.0251 43.0251C35.3687 43.6815 35 44.5717 35 45.5C35 46.4283 35.3687 47.3185 36.0251 47.9749C36.6815 48.6312 37.5717 49 38.5 49C39.4283 49 40.3185 48.6312 40.9749 47.9749C41.6312 47.3185 42 46.4283 42 45.5Z" fill="#F2BAC9"/>
</svg>
