<svg width="56" height="56" viewBox="0 0 56 56" fill="none" xmlns="http://www.w3.org/2000/svg">
<path opacity="0.2" d="M42 24.5C42 27.9612 40.9736 31.3446 39.0507 34.2225C37.1278 37.1003 34.3947 39.3434 31.197 40.6679C27.9993 41.9924 24.4806 42.339 21.0859 41.6637C17.6913 40.9885 14.5731 39.3218 12.1256 36.8744C9.67822 34.427 8.01151 31.3088 7.33627 27.9141C6.66102 24.5194 7.00758 21.0007 8.33212 17.803C9.65665 14.6053 11.8997 11.8722 14.7775 9.94928C17.6554 8.02636 21.0388 7 24.5 7C26.7981 7 29.0738 7.45265 31.197 8.33211C33.3202 9.21157 35.2493 10.5006 36.8744 12.1256C38.4994 13.7507 39.7884 15.6798 40.6679 17.803C41.5474 19.9262 42 22.2019 42 24.5Z" fill="#F2BAC9"/>
<path d="M50.2381 47.7619L39.2875 36.8113C42.4677 32.9972 44.0549 28.1039 43.7191 23.1493C43.3833 18.1948 41.1502 13.5604 37.4844 10.2104C33.8187 6.86033 29.0024 5.05256 24.0377 5.16311C19.073 5.27367 14.3421 7.29405 10.8291 10.804C7.31607 14.3138 5.29151 19.043 5.17656 24.0076C5.06162 28.9722 6.86514 33.79 10.2119 37.4588C13.5587 41.1275 18.1911 43.3647 23.1454 43.7049C28.0997 44.0451 32.9944 42.4621 36.8112 39.2853L47.7619 50.2382C47.9245 50.4008 48.1175 50.5297 48.3299 50.6177C48.5424 50.7057 48.7701 50.751 49 50.751C49.2299 50.751 49.4576 50.7057 49.6701 50.6177C49.8825 50.5297 50.0755 50.4008 50.2381 50.2382C50.4007 50.0756 50.5297 49.8825 50.6177 49.6701C50.7057 49.4577 50.751 49.23 50.751 49C50.751 48.7701 50.7057 48.5424 50.6177 48.33C50.5297 48.1175 50.4007 47.9245 50.2381 47.7619ZM8.75 24.5C8.75 21.385 9.67372 18.3399 11.4043 15.7498C13.135 13.1597 15.5948 11.141 18.4727 9.94893C21.3507 8.75685 24.5175 8.44495 27.5727 9.05267C30.6279 9.66039 33.4342 11.1604 35.6369 13.3631C37.8396 15.5658 39.3396 18.3722 39.9474 21.4274C40.5551 24.4826 40.2432 27.6494 39.0511 30.5273C37.859 33.4052 35.8403 35.8651 33.2502 37.5957C30.6602 39.3263 27.6151 40.25 24.5 40.25C20.3243 40.2454 16.3209 38.5845 13.3682 35.6319C10.4155 32.6792 8.75463 28.6758 8.75 24.5Z" fill="#F2BAC9"/>
</svg>
